<?xml version="1.0" encoding="UTF-8"?>
<svg version="1.1" xmlns="http://www.w3.org/2000/svg" width="128" height="128">
<path d="M0 0 C0.66 0 1.32 0 2 0 C3.48778927 3.22526177 4.96368107 6.4558333 6.4375 9.6875 C6.85837891 10.59951172 7.27925781 11.51152344 7.71289062 12.45117188 C8.11572266 13.33740234 8.51855469 14.22363281 8.93359375 15.13671875 C9.30540771 15.94842529 9.67722168 16.76013184 10.06030273 17.59643555 C11.02183049 20.0558382 11.56105395 22.40071118 12 25 C19.04207705 24.2812193 19.04207705 24.2812193 26 23 C26 22.34 26 21.68 26 21 C28.54046458 20.49311395 31.08208876 19.99433126 33.625 19.5 C34.33785156 19.35691406 35.05070312 19.21382812 35.78515625 19.06640625 C39.90854282 18.27199232 43.77748009 17.74015262 48 18 C48.33 18.33 48.66 18.66 49 19 C50.75904065 18.74322729 52.50837758 18.41874095 54.25 18.0625 C57.91403088 17.31483964 61.25778444 16.88390937 65 17 C65 17.66 65 18.32 65 19 C64.278125 19.185625 63.55625 19.37125 62.8125 19.5625 C59.73000326 20.82502175 59.73000326 20.82502175 58.125 24.125 C55.06073978 28.91165486 50.14090116 30.86592089 45.16845703 33.24658203 C43.4132642 34.10084856 41.70246101 35.0449609 40 36 C39.67 36.99 39.34 37.98 39 39 C39.598125 39.144375 40.19625 39.28875 40.8125 39.4375 C47.43523786 41.14048974 47.43523786 41.14048974 49.0703125 43.62890625 C50.046875 45.41927083 51.0234375 47.20963542 52 49 C52.66 49 53.32 49 54 49 C54 49.99 54 50.98 54 52 C55.65 52 57.3 52 59 52 C59.33 52.66 59.66 53.32 60 54 C62.97 54 65.94 54 69 54 C68.67 55.32 68.34 56.64 68 58 C66.68 58.33 65.36 58.66 64 59 C63.12245809 61.20438833 63.12245809 61.20438833 63 64 C65.46215288 68.68589439 65.46215288 68.68589439 70 71 C70.33 72.32 70.66 73.64 71 75 C67.37 75 63.74 75 60 75 C59.505 71.535 59.505 71.535 59 68 C56.63019987 70.95377498 56.63019987 70.95377498 57 75 C51.44758065 75.96947005 51.44758065 75.96947005 48 75 C44.50896793 71.66837579 41.82986897 67.89106983 39 64 C38.67 64 38.34 64 38 64 C37.67 66.31 37.34 68.62 37 71 C37.66 71.33 38.32 71.66 39 72 C39 72.99 39 73.98 39 75 C34.05 75 29.1 75 24 75 C23.67 75.66 23.34 76.32 23 77 C20 76 20 76 18.55786133 73.51904297 C15.59791508 66.94693403 15.59791508 66.94693403 14.64672852 64.7734375 C13.82145292 62.89537399 12.97177571 61.0298345 12.11914062 59.1640625 C11.59126953 57.97296875 11.06339844 56.781875 10.51953125 55.5546875 C10.03589111 54.46655762 9.55225098 53.37842773 9.05395508 52.25732422 C7.27163613 46.74893891 7.47906856 42.19942111 10 37 C8.02 37 6.04 37 4 37 C4 37.66 4 38.32 4 39 C3.43410156 39.23074219 2.86820313 39.46148437 2.28515625 39.69921875 C1.18494141 40.18841797 1.18494141 40.18841797 0.0625 40.6875 C-0.66839844 41.00074219 -1.39929687 41.31398437 -2.15234375 41.63671875 C-4.67936784 43.50126718 -4.39418958 44.95354722 -5 48 C-5.84108976 49.96317062 -6.74272595 51.90097605 -7.6875 53.81640625 C-8.22117188 54.91017578 -8.75484375 56.00394531 -9.3046875 57.13085938 C-9.86414062 58.26330078 -10.42359375 59.39574219 -11 60.5625 C-12.10758492 62.81212236 -13.21189684 65.06335992 -14.3125 67.31640625 C-14.80363281 68.31099854 -15.29476562 69.30559082 -15.80078125 70.33032227 C-16.81130727 72.57993586 -17.51412703 74.59314251 -18 77 C-18.99 77 -19.98 77 -21 77 C-26.34498141 64.95687732 -26.34498141 64.95687732 -25.546875 60.4296875 C-24.52178678 58.41776062 -23.42363645 56.74878798 -22 55 C-21.4225 54.175 -20.845 53.35 -20.25 52.5 C-19.8375 52.005 -19.425 51.51 -19 51 C-21.75504918 51.08103086 -23.51587351 51.59115634 -25.6328125 53.37890625 C-29.31939823 57.35935026 -31 60.40523675 -31 66 C-30.16830035 69.33499305 -30.16830035 69.33499305 -29 72 C-30.32 72 -31.64 72 -33 72 C-33.061875 71.46375 -33.12375 70.9275 -33.1875 70.375 C-34.35475046 66.96303712 -36.69893222 64.75005662 -39 62 C-41.40796571 57.73133352 -41.2769498 54.70875238 -40 50 C-38.57809291 47.80654673 -37.04641509 45.80578737 -35.375 43.796875 C-33.7989604 41.93918937 -33.7989604 41.93918937 -33 39 C-33.66 38.67 -34.32 38.34 -35 38 C-36.02803334 35.61731265 -36.94672993 33.26356174 -37.8203125 30.82421875 C-38.21559647 29.74186699 -38.21559647 29.74186699 -38.61886597 28.63764954 C-39.17538274 27.10810077 -39.7282723 25.57722818 -40.27783203 24.04516602 C-41.11906601 21.70401427 -41.97463799 19.3684781 -42.83203125 17.03320312 C-43.37066376 15.54719082 -43.90845195 14.06087214 -44.4453125 12.57421875 C-44.70152374 11.87616623 -44.95773499 11.17811371 -45.22171021 10.45890808 C-46.42938936 7.06432303 -47 4.65473006 -47 1 C-45.2709226 0.97274659 -43.54171824 0.95349013 -41.8125 0.9375 C-40.84957031 0.92589844 -39.88664062 0.91429688 -38.89453125 0.90234375 C-33.62317171 1.08018989 -33.62317171 1.08018989 -31 2 C-29.5144043 4.60449219 -29.5144043 4.60449219 -28.32421875 8.046875 C-27.67163086 9.903125 -27.67163086 9.903125 -27.00585938 11.796875 C-26.68137817 12.77043945 -26.68137817 12.77043945 -26.3503418 13.76367188 C-25.69213716 15.7361039 -25.00443042 17.69612141 -24.31054688 19.65625 C-20.70554501 30.10804488 -20.70554501 30.10804488 -21 35 C-18.84188612 34.05270463 -18.84188612 34.05270463 -17 32 C-15.01643517 31.28591666 -13.01684563 30.61382258 -11 30 C-11.495 28.515 -11.495 28.515 -12 27 C-11.11962891 24.50390625 -11.11962891 24.50390625 -9.7265625 21.5625 C-9.2315625 20.50289062 -8.7365625 19.44328125 -8.2265625 18.3515625 C-7.69804688 17.24554688 -7.16953125 16.13953125 -6.625 15 C-5.59523607 12.81302612 -4.56654041 10.62554882 -3.5390625 8.4375 C-3.07709473 7.46683594 -2.61512695 6.49617188 -2.13916016 5.49609375 C-0.92578746 2.95435127 -0.92578746 2.95435127 0 0 Z M37 20 C37 20.33 37 20.66 37 21 C38.98 21 40.96 21 43 21 C43 20.67 43 20.34 43 20 C41.02 20 39.04 20 37 20 Z M32 21 C32 21.33 32 21.66 32 22 C33.65 22 35.3 22 37 22 C37 21.67 37 21.34 37 21 C35.35 21 33.7 21 32 21 Z M52 21 C53.98 21.99 53.98 21.99 56 23 C56.33 22.34 56.66 21.68 57 21 C55.35 21 53.7 21 52 21 Z M45 24 C47.35367713 24.6878236 47.35367713 24.6878236 50 25 C50.99 24.34 51.98 23.68 53 23 C48.82189931 21.81068813 48.82189931 21.81068813 45 24 Z M5 24 C9 25 9 25 9 25 Z M41 24 C41.66 24.66 42.32 25.32 43 26 C43.99 25.67 44.98 25.34 46 25 C44.35 24.67 42.7 24.34 41 24 Z M1 25 C5 26 5 26 5 26 Z M34 27 C36.35367713 27.6878236 36.35367713 27.6878236 39 28 C39.99 27.34 40.98 26.68 42 26 C37.82189931 24.81068813 37.82189931 24.81068813 34 27 Z M-3 26 C1 27 1 27 1 27 Z M7 26 C11 27 11 27 11 27 Z M3 27 C7 28 7 28 7 28 Z M-1 28 C3 29 3 29 3 29 Z M18 32 C20.90073181 32.67801034 20.90073181 32.67801034 24 33 C24.66 32.34 25.32 31.68 26 31 C21.82189931 29.81068813 21.82189931 29.81068813 18 32 Z M38 34 C39 36 39 36 39 36 Z M-31 36 C-31 36.99 -31 37.98 -31 39 C-30.01 38.67 -29.02 38.34 -28 38 C-28.33 37.34 -28.66 36.68 -29 36 C-29.66 36 -30.32 36 -31 36 Z M37 36 C38 39 38 39 38 39 Z M36 39 C37 41 37 41 37 41 Z M35 46 C35 48.97 35 51.94 35 55 C35.33 55 35.66 55 36 55 C36 52.03 36 49.06 36 46 C35.67 46 35.34 46 35 46 Z M40 45 C39.01 45.33 38.02 45.66 37 46 C37 48.97 37 51.94 37 55 C39.31 55 41.62 55 44 55 C44.67673447 51.59679066 44.67673447 51.59679066 45 48 C44.34 47.34 43.68 46.68 43 46 C42.67 46.33 42.34 46.66 42 47 C41.34 46.34 40.68 45.68 40 45 Z M51 52 C52 54 52 54 52 54 Z M58 56 C59 58 59 58 59 58 Z M52 57 C50.02 57.99 48.04 58.98 46 60 C46 63.60573896 46.81707462 64.41336566 49 67.1875 C49.8353125 68.26064453 49.8353125 68.26064453 50.6875 69.35546875 C51.120625 69.89816406 51.55375 70.44085938 52 71 C55.50177065 67.15096452 55.50177065 67.15096452 56 62 C54.08140833 59.26780807 54.08140833 59.26780807 52 57 Z M59 58 C60 60 60 60 60 60 Z M37 61 C38 63 38 63 38 63 Z M27 62 C25.96960445 66.53374042 25.82233925 67.64467851 28 72 C28 68.7 28 65.4 28 62 C27.67 62 27.34 62 27 62 Z M35 62 C35 65.63 35 69.26 35 73 C35.33 73 35.66 73 36 73 C36 69.37 36 65.74 36 62 C35.67 62 35.34 62 35 62 Z M25 68 C26 70 26 70 26 70 Z M24 70 C25 73 25 73 25 73 Z M55 71 C56 73 56 73 56 73 Z M61 71 C62 73 62 73 62 73 Z " fill="#EEF0EC" transform="translate(52,22)"/>
<path d="M0 0 C0.99 0.33 1.98 0.66 3 1 C-0.70240057 6.02981163 -4.15064621 8.52807667 -9.75 11.1875 C-12.23590225 12.38363564 -14.59973176 13.62716365 -17 15 C-17.33 15.99 -17.66 16.98 -18 18 C-17.401875 18.144375 -16.80375 18.28875 -16.1875 18.4375 C-9.56476214 20.14048974 -9.56476214 20.14048974 -7.9296875 22.62890625 C-6.953125 24.41927083 -5.9765625 26.20963542 -5 28 C-4.34 28 -3.68 28 -3 28 C-3 28.99 -3 29.98 -3 31 C-1.35 31 0.3 31 2 31 C2.495 31.99 2.495 31.99 3 33 C5.97 33 8.94 33 12 33 C11.67 34.32 11.34 35.64 11 37 C9.02 37.495 9.02 37.495 7 38 C6.12245809 40.20438833 6.12245809 40.20438833 6 43 C8.46215288 47.68589439 8.46215288 47.68589439 13 50 C13.495 51.98 13.495 51.98 14 54 C10.37 54 6.74 54 3 54 C2.505 50.535 2.505 50.535 2 47 C-0.36980013 49.95377498 -0.36980013 49.95377498 0 54 C-5.55241935 54.96947005 -5.55241935 54.96947005 -9 54 C-12.49103207 50.66837579 -15.17013103 46.89106983 -18 43 C-18.33 43 -18.66 43 -19 43 C-19.33 45.31 -19.66 47.62 -20 50 C-19.34 50.33 -18.68 50.66 -18 51 C-18 51.99 -18 52.98 -18 54 C-22.95 54 -27.9 54 -33 54 C-33.33 54.66 -33.66 55.32 -34 56 C-37 55 -37 55 -38.44213867 52.51904297 C-41.40208492 45.94693403 -41.40208492 45.94693403 -42.35327148 43.7734375 C-43.17854708 41.89537399 -44.02822429 40.0298345 -44.88085938 38.1640625 C-45.40873047 36.97296875 -45.93660156 35.781875 -46.48046875 34.5546875 C-46.96410889 33.46655762 -47.44774902 32.37842773 -47.94604492 31.25732422 C-49.78109247 25.58597735 -49.30442543 21.37699266 -47 16 C-47.33 15.34 -47.66 14.68 -48 14 C-43.01770224 12.08373163 -38.27315333 11.4452885 -33 11 C-33 10.34 -33 9.68 -33 9 C-31.03125 8.5625 -31.03125 8.5625 -29.0625 8.125 C-28.2375 7.94066406 -27.4125 7.75632812 -26.5625 7.56640625 C-24.96004756 7.21220563 -23.35607644 6.86473133 -21.75 6.52734375 C-16.83657421 5.48324077 -12.05869517 4.17444149 -7.26171875 2.68359375 C-5.77719792 2.23490438 -4.27876949 1.8294814 -2.76953125 1.47265625 C-0.98813376 1.15502694 -0.98813376 1.15502694 0 0 Z M-19 13 C-18 15 -18 15 -18 15 Z M-20 15 C-19 18 -19 18 -19 18 Z M-21 18 C-20 20 -20 20 -20 20 Z M-22 25 C-22 27.97 -22 30.94 -22 34 C-21.67 34 -21.34 34 -21 34 C-21 31.03 -21 28.06 -21 25 C-21.33 25 -21.66 25 -22 25 Z M-17 24 C-17.99 24.33 -18.98 24.66 -20 25 C-20 27.97 -20 30.94 -20 34 C-17.69 34 -15.38 34 -13 34 C-12.32326553 30.59679066 -12.32326553 30.59679066 -12 27 C-12.66 26.34 -13.32 25.68 -14 25 C-14.33 25.33 -14.66 25.66 -15 26 C-15.66 25.34 -16.32 24.68 -17 24 Z M-6 31 C-5 33 -5 33 -5 33 Z M1 35 C2 37 2 37 2 37 Z M-5 36 C-6.98 36.99 -8.96 37.98 -11 39 C-11 42.60573896 -10.18292538 43.41336566 -8 46.1875 C-7.1646875 47.26064453 -7.1646875 47.26064453 -6.3125 48.35546875 C-5.879375 48.89816406 -5.44625 49.44085938 -5 50 C-1.49822935 46.15096452 -1.49822935 46.15096452 -1 41 C-2.91859167 38.26780807 -2.91859167 38.26780807 -5 36 Z M2 37 C3 39 3 39 3 39 Z M-20 40 C-19 42 -19 42 -19 42 Z M-30 41 C-31.03039555 45.53374042 -31.17766075 46.64467851 -29 51 C-29 47.7 -29 44.4 -29 41 C-29.33 41 -29.66 41 -30 41 Z M-22 41 C-22 44.63 -22 48.26 -22 52 C-21.67 52 -21.34 52 -21 52 C-21 48.37 -21 44.74 -21 41 C-21.33 41 -21.66 41 -22 41 Z M-32 47 C-31 49 -31 49 -31 49 Z M-33 49 C-32 52 -32 52 -32 52 Z M-2 50 C-1 52 -1 52 -1 52 Z M4 50 C5 52 5 52 5 52 Z " fill="#0BBBBA" transform="translate(109,43)"/>
<path d="M0 0 C0.33 0.99 0.66 1.98 1 3 C2.89179203 3.6814823 2.89179203 3.6814823 5 4 C10.5230151 5.84100503 11.2627661 7.98173785 14 13 C14.66 13 15.32 13 16 13 C16 13.99 16 14.98 16 16 C17.65 16 19.3 16 21 16 C21.495 16.99 21.495 16.99 22 18 C24.97 18 27.94 18 31 18 C30.67 19.32 30.34 20.64 30 22 C28.68 22.33 27.36 22.66 26 23 C25.12245809 25.20438833 25.12245809 25.20438833 25 28 C27.46215288 32.68589439 27.46215288 32.68589439 32 35 C32.495 36.98 32.495 36.98 33 39 C29.37 39 25.74 39 22 39 C21.505 35.535 21.505 35.535 21 32 C18.63019987 34.95377498 18.63019987 34.95377498 19 39 C13.44758065 39.96947005 13.44758065 39.96947005 10 39 C6.50896793 35.66837579 3.82986897 31.89106983 1 28 C0.67 28 0.34 28 0 28 C-0.33 30.31 -0.66 32.62 -1 35 C-0.34 35.33 0.32 35.66 1 36 C1 36.99 1 37.98 1 39 C-3.95 39 -8.9 39 -14 39 C-13.34 36.69 -12.68 34.38 -12 32 C-11.67 32 -11.34 32 -11 32 C-10.20784912 26.35592501 -9.84285824 20.7603091 -9.75 15.0625 C-9.72421875 13.77472656 -9.6984375 12.48695312 -9.671875 11.16015625 C-9.78015625 10.11730469 -9.8884375 9.07445313 -10 8 C-10.99 7.34 -11.98 6.68 -13 6 C-7.06 5.505 -7.06 5.505 -1 5 C-0.67 3.35 -0.34 1.7 0 0 Z M-3 10 C-3 12.97 -3 15.94 -3 19 C-2.67 19 -2.34 19 -2 19 C-2 16.03 -2 13.06 -2 10 C-2.33 10 -2.66 10 -3 10 Z M2 9 C1.01 9.33 0.02 9.66 -1 10 C-1 12.97 -1 15.94 -1 19 C1.31 19 3.62 19 6 19 C6.67673447 15.59679066 6.67673447 15.59679066 7 12 C6.34 11.34 5.68 10.68 5 10 C4.67 10.33 4.34 10.66 4 11 C3.34 10.34 2.68 9.68 2 9 Z M13 16 C14 18 14 18 14 18 Z M20 20 C21 22 21 22 21 22 Z M14 21 C12.02 21.99 10.04 22.98 8 24 C8 27.60573896 8.81707462 28.41336566 11 31.1875 C11.8353125 32.26064453 11.8353125 32.26064453 12.6875 33.35546875 C13.120625 33.89816406 13.55375 34.44085938 14 35 C17.50177065 31.15096452 17.50177065 31.15096452 18 26 C16.08140833 23.26780807 16.08140833 23.26780807 14 21 Z M21 22 C22 24 22 24 22 24 Z M-1 25 C0 27 0 27 0 27 Z M-3 26 C-3 29.63 -3 33.26 -3 37 C-2.67 37 -2.34 37 -2 37 C-2 33.37 -2 29.74 -2 26 C-2.33 26 -2.66 26 -3 26 Z M17 35 C18 37 18 37 18 37 Z M23 35 C24 37 24 37 24 37 Z " fill="#FCFDFE" transform="translate(90,58)"/>
<path d="M0 0 C1.7290774 -0.02725341 3.45828176 -0.04650987 5.1875 -0.0625 C6.15042969 -0.07410156 7.11335937 -0.08570312 8.10546875 -0.09765625 C13.37426305 0.08010334 13.37426305 0.08010334 16 1 C17.50146484 3.60449219 17.50146484 3.60449219 18.7109375 7.046875 C19.15050781 8.284375 19.59007813 9.521875 20.04296875 10.796875 C20.37047119 11.77043945 20.37047119 11.77043945 20.70458984 12.76367188 C21.37077539 14.73748309 22.07102252 16.69649199 22.77734375 18.65625 C26.52810083 29.44947335 26.52810083 29.44947335 25 34 C22.09557968 36.17831524 19.54875053 36.19715281 16 36 C16 36.66 16 37.32 16 38 C14.18847656 37.94848633 14.18847656 37.94848633 12 37 C10.77721558 34.57957002 9.85872583 32.3699181 8.984375 29.82421875 C8.72368225 29.10265091 8.4629895 28.38108307 8.19439697 27.63764954 C7.64580037 26.10951487 7.1049569 24.57857804 6.57128906 23.04516602 C5.75482061 20.70133848 4.91485975 18.36704097 4.0703125 16.03320312 C3.54026016 14.547376 3.01156898 13.06106246 2.484375 11.57421875 C2.23443787 10.87616623 1.98450073 10.17811371 1.72698975 9.45890808 C0.55570987 6.07314961 0 3.63209009 0 0 Z " fill="#03B9BB" transform="translate(5,23)"/>
<path d="M0 0 C0.66 0 1.32 0 2 0 C3.51545463 3.2221324 5.00955711 6.45373127 6.5 9.6875 C6.92925781 10.59951172 7.35851562 11.51152344 7.80078125 12.45117188 C8.40986328 13.78051758 8.40986328 13.78051758 9.03125 15.13671875 C9.40830078 15.94842529 9.78535156 16.76013184 10.17382812 17.59643555 C11.07133272 20.20752678 11.15359499 22.25875616 11 25 C-5.90517241 31.69827586 -5.90517241 31.69827586 -11 30 C-12.287939 26.13618299 -11.4411364 25.18275698 -9.7265625 21.5625 C-9.2315625 20.50289062 -8.7365625 19.44328125 -8.2265625 18.3515625 C-7.69804688 17.24554688 -7.16953125 16.13953125 -6.625 15 C-5.59523607 12.81302612 -4.56654041 10.62554882 -3.5390625 8.4375 C-3.07709473 7.46683594 -2.61512695 6.49617188 -2.13916016 5.49609375 C-0.92578746 2.95435127 -0.92578746 2.95435127 0 0 Z M5 24 C9 25 9 25 9 25 Z M1 25 C5 26 5 26 5 26 Z M-3 26 C1 27 1 27 1 27 Z " fill="#0DB9BA" transform="translate(52,22)"/>
<path d="M0 0 C1.4540625 0.0309375 1.4540625 0.0309375 2.9375 0.0625 C2.31523516 4.06649969 1.0390326 7.25183048 -0.75 10.87890625 C-1.28367187 11.97267578 -1.81734375 13.06644531 -2.3671875 14.19335938 C-2.92664063 15.32580078 -3.48609375 16.45824219 -4.0625 17.625 C-5.17008492 19.87462236 -6.27439684 22.12585992 -7.375 24.37890625 C-7.86613281 25.37349854 -8.35726562 26.36809082 -8.86328125 27.39282227 C-9.87380727 29.64243586 -10.57662703 31.65564251 -11.0625 34.0625 C-12.0525 34.0625 -13.0425 34.0625 -14.0625 34.0625 C-19.40748141 22.01937732 -19.40748141 22.01937732 -18.609375 17.4921875 C-17.58398586 15.47967 -16.49099693 13.8084407 -15.0625 12.0625 C-14.485 11.27875 -13.9075 10.495 -13.3125 9.6875 C-12.9 9.15125 -12.4875 8.615 -12.0625 8.0625 C-12.0625 7.4025 -12.0625 6.7425 -12.0625 6.0625 C-11.4025 6.0625 -10.7425 6.0625 -10.0625 6.0625 C-10.0625 5.4025 -10.0625 4.7425 -10.0625 4.0625 C-9.093125 3.588125 -8.12375 3.11375 -7.125 2.625 C-2.0625 0.04209184 -2.0625 0.04209184 0 0 Z " fill="#06B9B9" transform="translate(45.0625,64.9375)"/>
<path d="M0 0 C4.95 0 9.9 0 15 0 C16 2 16 2 15.00390625 5.2578125 C14.53251165 6.5502209 14.050093 7.83861537 13.5625 9.125 C12.716875 11.39375 11.87125 13.6625 11 16 C5.39 16.99 -0.22 17.98 -6 19 C-4.69328927 12.24866125 -2.67767805 6.33717138 0 0 Z " fill="#03B8BB" transform="translate(86,23)"/>
<path d="M0 0 C0 0.66 0 1.32 0 2 C-1.18078125 2.26554687 -2.3615625 2.53109375 -3.578125 2.8046875 C-5.13547811 3.16119002 -6.69276642 3.51797572 -8.25 3.875 C-9.02730469 4.04902344 -9.80460937 4.22304688 -10.60546875 4.40234375 C-11.35957031 4.57636719 -12.11367187 4.75039063 -12.890625 4.9296875 C-13.92751465 5.16534424 -13.92751465 5.16534424 -14.98535156 5.40576172 C-17.14928967 6.0440343 -19.00061461 6.96372681 -21 8 C-22.32303717 8.3721042 -23.65737935 8.70630173 -25 9 C-27.39100534 9.57963766 -29.66001872 10.22000624 -32 11 C-34.33006911 11.35543427 -36.66327016 11.6913753 -39 12 C-38.67 10.68 -38.34 9.36 -38 8 C-35.03 8.495 -35.03 8.495 -32 9 C-32 8.34 -32 7.68 -32 7 C-34.31 7 -36.62 7 -39 7 C-39 6.01 -39 5.02 -39 4 C-36.45953542 3.49311395 -33.91791124 2.99433126 -31.375 2.5 C-30.66214844 2.35691406 -29.94929688 2.21382812 -29.21484375 2.06640625 C-25.09145718 1.27199232 -21.22251991 0.74015262 -17 1 C-16.67 1.33 -16.34 1.66 -16 2 C-14.24095935 1.74322729 -12.49162242 1.41874095 -10.75 1.0625 C-7.08596912 0.31483964 -3.74221556 -0.11609063 0 0 Z M-28 3 C-28 3.33 -28 3.66 -28 4 C-26.02 4 -24.04 4 -22 4 C-22 3.67 -22 3.34 -22 3 C-23.98 3 -25.96 3 -28 3 Z M-33 4 C-33 4.33 -33 4.66 -33 5 C-31.35 5 -29.7 5 -28 5 C-28 4.67 -28 4.34 -28 4 C-29.65 4 -31.3 4 -33 4 Z " fill="#EAEAE6" transform="translate(117,39)"/>
<path d="M0 0 C0.99 0.33 1.98 0.66 3 1 C-0.80254514 6.23506215 -4.47876259 8.69533867 -10.3125 11.375 C-11.05306641 11.72949219 -11.79363281 12.08398438 -12.55664062 12.44921875 C-14.36492195 13.31252725 -16.18164003 14.15812711 -18 15 C-17.67 13.02 -17.34 11.04 -17 9 C-16.01 9.33 -15.02 9.66 -14 10 C-14 9.01 -14 8.02 -14 7 C-15.32 6.67 -16.64 6.34 -18 6 C-15.9170757 5.35284867 -13.83364461 4.70732834 -11.75 4.0625 C-10.58984375 3.70285156 -9.4296875 3.34320313 -8.234375 2.97265625 C-6.38243121 2.41573113 -4.52106943 1.88502495 -2.640625 1.43359375 C-0.97210971 1.13976301 -0.97210971 1.13976301 0 0 Z " fill="#0AADAC" transform="translate(109,43)"/>
<path d="M0 0 C0 0.33 0 0.66 0 1 C-1.72807318 1.33895656 -3.45751974 1.67091525 -5.1875 2 C-6.63189453 2.2784375 -6.63189453 2.2784375 -8.10546875 2.5625 C-10.7934206 2.96877612 -13.28771019 3.07933572 -16 3 C-16 3.66 -16 4.32 -16 5 C-15.37351562 5.04898438 -14.74703125 5.09796875 -14.1015625 5.1484375 C-13.28429687 5.22320312 -12.46703125 5.29796875 -11.625 5.375 C-10.40683594 5.47941406 -10.40683594 5.47941406 -9.1640625 5.5859375 C-7 6 -7 6 -5 8 C-6.98 8 -8.96 8 -11 8 C-11.33 8.66 -11.66 9.32 -12 10 C-14.28515625 10.4140625 -14.28515625 10.4140625 -17.0625 10.625 C-17.98160156 10.69976562 -18.90070313 10.77453125 -19.84765625 10.8515625 C-20.91306641 10.92503906 -20.91306641 10.92503906 -22 11 C-21.67 9.68 -21.34 8.36 -21 7 C-18.03 7.495 -18.03 7.495 -15 8 C-15 7.34 -15 6.68 -15 6 C-17.31 6 -19.62 6 -22 6 C-22 5.01 -22 4.02 -22 3 C-19.45953542 2.49311395 -16.91791124 1.99433126 -14.375 1.5 C-13.66214844 1.35691406 -12.94929688 1.21382812 -12.21484375 1.06640625 C-8.07855065 0.26950574 -4.23566321 -0.16034056 0 0 Z " fill="#C3E5E3" transform="translate(100,40)"/>
<path d="M0 0 C2.475 0.495 2.475 0.495 5 1 C4.34 2.32 3.68 3.64 3 5 C5.92879371 4.37240135 8.36095629 3.41377341 11 2 C10.40075776 6.19469571 9.42500059 10.00999834 8 14 C7.01 14 6.02 14 5 14 C3.35 9.38 1.7 4.76 0 0 Z " fill="#05B1B1" transform="translate(26,85)"/>
<path d="M0 0 C0 0.66 0 1.32 0 2 C-1.98 2.33 -3.96 2.66 -6 3 C-5.97679688 3.83402344 -5.95359375 4.66804688 -5.9296875 5.52734375 C-5.8196756 12.38737134 -6.20365683 18.37598457 -8 25 C-8.33 25 -8.66 25 -9 25 C-8.98428955 24.34402832 -8.9685791 23.68805664 -8.95239258 23.01220703 C-8.89016348 20.04989184 -8.85104832 17.0877139 -8.8125 14.125 C-8.78736328 13.09246094 -8.76222656 12.05992188 -8.73632812 10.99609375 C-8.72666016 10.00996094 -8.71699219 9.02382812 -8.70703125 8.0078125 C-8.6913208 7.09660645 -8.67561035 6.18540039 -8.65942383 5.24658203 C-8.77181396 4.50520996 -8.8842041 3.76383789 -9 3 C-9.99 2.34 -10.98 1.68 -12 1 C-10.37512529 0.83211627 -8.75009558 0.66573213 -7.125 0.5 C-6.22007813 0.4071875 -5.31515625 0.314375 -4.3828125 0.21875 C-2 0 -2 0 0 0 Z " fill="#D6FEFE" transform="translate(89,63)"/>
<path d="M0 0 C0.99 0.33 1.98 0.66 3 1 C-1.625 6.875 -1.625 6.875 -5 8 C-6.32 8 -7.64 8 -9 8 C-9.33 6.68 -9.66 5.36 -10 4 C-7.01765425 2.75735594 -4.12887292 1.78221823 -1 1 C-0.67 0.67 -0.34 0.34 0 0 Z " fill="#09B5B0" transform="translate(109,43)"/>
<path d="M0 0 C-0.33 1.32 -0.66 2.64 -1 4 C-2.77155654 3.88570603 -4.54226229 3.75816963 -6.3125 3.625 C-7.29863281 3.55539063 -8.28476563 3.48578125 -9.30078125 3.4140625 C-12 3 -12 3 -15 1 C-10.03926578 -0.32286246 -5.08888488 -0.08893197 0 0 Z " fill="#EDF1F1" transform="translate(99,43)"/>
<path d="M0 0 C3.3 0 6.6 0 10 0 C10 0.66 10 1.32 10 2 C8.824375 1.9690625 8.824375 1.9690625 7.625 1.9375 C5.01885039 1.81315937 5.01885039 1.81315937 3 3 C3 3.66 3 4.32 3 5 C2.34 5 1.68 5 1 5 C0.67 4.67 0.34 4.34 0 4 C-0.99 4.33 -1.98 4.66 -3 5 C-3 4.01 -3 3.02 -3 2 C-2.01 2 -1.02 2 0 2 C0 1.34 0 0.68 0 0 Z " fill="#FBF6F6" transform="translate(75,46)"/>
<path d="M0 0 C3.63 0 7.26 0 11 0 C11 0.66 11 1.32 11 2 C9.906875 2.103125 8.81375 2.20625 7.6875 2.3125 C4.14440371 2.97307727 3.06756277 3.2027092 1 6 C0.67 4.02 0.34 2.04 0 0 Z " fill="#0D999B" transform="translate(5,23)"/>
<path d="M0 0 C0.66 0 1.32 0 2 0 C3.25 6.625 3.25 6.625 1 10 C1 9.34 1 8.68 1 8 C0.34 8 -0.32 8 -1 8 C-0.67 5.36 -0.34 2.72 0 0 Z " fill="#00BBAD" transform="translate(76,80)"/>
<path d="M0 0 C0.99 0.33 1.98 0.66 3 1 C1.20578369 5.0369867 -0.20551875 7.64480474 -4 10 C-4.66 9.67 -5.32 9.34 -6 9 C-5.34 8.21625 -4.68 7.4325 -4 6.625 C-1.79798559 4.28487188 -1.79798559 4.28487188 -2 2 C-1.34 2 -0.68 2 0 2 C0 1.34 0 0.68 0 0 Z " fill="#17AFAC" transform="translate(35,69)"/>
<path d="M0 0 C-1.98 0.66 -3.96 1.32 -6 2 C-6 3.65 -6 5.3 -6 7 C-7.32 7 -8.64 7 -10 7 C-10 5.68 -10 4.36 -10 3 C-3.375 -1.125 -3.375 -1.125 0 0 Z " fill="#E9F6F7" transform="translate(31,58)"/>
<path d="M0 0 C0.66 1.32 1.32 2.64 2 4 C3.32 3.67 4.64 3.34 6 3 C4.75 4.5625 4.75 4.5625 3 6 C0.8125 5.6875 0.8125 5.6875 -1 5 C-1.33 3.68 -1.66 2.36 -2 1 C-1.34 0.67 -0.68 0.34 0 0 Z " fill="#0EC2C9" transform="translate(98,47)"/>
<path d="M0 0 C-1.32 1.32 -2.64 2.64 -4 4 C-5.32 2.68 -6.64 1.36 -8 0 C-4.71303767 -0.79953138 -3.28976808 -1.09658936 0 0 Z " fill="#48A5A5" transform="translate(112,44)"/>
<path d="M0 0 C4.95 0 9.9 0 15 0 C15 0.33 15 0.66 15 1 C10.05 1 5.1 1 0 1 C0 0.67 0 0.34 0 0 Z " fill="#FEFEFE" transform="translate(76,98)"/>
<path d="M0 0 C4.62 0 9.24 0 14 0 C14 0.33 14 0.66 14 1 C9.38 1 4.76 1 0 1 C0 0.67 0 0.34 0 0 Z " fill="#087973" transform="translate(86,21)"/>
<path d="M0 0 C3.3 0 6.6 0 10 0 C10 0.33 10 0.66 10 1 C6.7 1 3.4 1 0 1 C0 0.67 0 0.34 0 0 Z " fill="#177978" transform="translate(6,21)"/>
<path d="M0 0 C2.97 0 5.94 0 9 0 C9 0.33 9 0.66 9 1 C6.03 1 3.06 1 0 1 C0 0.67 0 0.34 0 0 Z " fill="#FFFFFF" transform="translate(113,98)"/>
<path d="M0 0 C2.97 0 5.94 0 9 0 C9 0.33 9 0.66 9 1 C6.03 1 3.06 1 0 1 C0 0.67 0 0.34 0 0 Z " fill="#FFFFFF" transform="translate(100,98)"/>
<path d="M0 0 C2.31 0 4.62 0 7 0 C7 0.33 7 0.66 7 1 C4.69 1 2.38 1 0 1 C0 0.67 0 0.34 0 0 Z " fill="#FFFFFF" transform="translate(113,74)"/>
<path d="M0 0 C0.33 0 0.66 0 1 0 C1 2.31 1 4.62 1 7 C0.67 7 0.34 7 0 7 C0 4.69 0 2.38 0 0 Z " fill="#2DB2BF" transform="translate(58,64)"/>
<path d="M0 0 C1.485 0.99 1.485 0.99 3 2 C2.67 2.66 2.34 3.32 2 4 C1.34 2.68 0.68 1.36 0 0 Z " fill="#F8F9F7" transform="translate(16,89)"/>
<path d="M0 0 C1.98 0 3.96 0 6 0 C6 0.33 6 0.66 6 1 C4.02 1 2.04 1 0 1 C0 0.67 0 0.34 0 0 Z " fill="#FEFDFD" transform="translate(101,39)"/>
<path d="M0 0 C0.33 0 0.66 0 1 0 C1 1.65 1 3.3 1 5 C0.67 5 0.34 5 0 5 C0 3.35 0 1.7 0 0 Z " fill="#F1F0EE" transform="translate(21,83)"/>
<path d="M0 0 C0.33 0 0.66 0 1 0 C1 1.65 1 3.3 1 5 C0.67 5 0.34 5 0 5 C0 3.35 0 1.7 0 0 Z " fill="#FEFEFE" transform="translate(95,70)"/>
<path d="M0 0 C1.65 0 3.3 0 5 0 C5 0.33 5 0.66 5 1 C3.35 1 1.7 1 0 1 C0 0.67 0 0.34 0 0 Z " fill="#DCE5DE" transform="translate(68,45)"/>
<path d="M0 0 C1.65 0 3.3 0 5 0 C5 0.33 5 0.66 5 1 C3.35 1 1.7 1 0 1 C0 0.67 0 0.34 0 0 Z " fill="#CFCBCC" transform="translate(73,44)"/>
<path d="M0 0 C1.65 0 3.3 0 5 0 C5 0.33 5 0.66 5 1 C3.35 1 1.7 1 0 1 C0 0.67 0 0.34 0 0 Z " fill="#BFB9BA" transform="translate(107,38)"/>
<path d="M0 0 C1 4 1 4 1 4 Z " fill="#FEFEFD" transform="translate(9,75)"/>
<path d="M0 0 C4 1 4 1 4 1 Z " fill="#C7E0DA" transform="translate(64,46)"/>
<path d="" fill="#F8F8F4" transform="translate(0,0)"/>
<path d="" fill="#117567" transform="translate(0,0)"/>
<path d="" fill="#FEFEFE" transform="translate(0,0)"/>
<path d="" fill="#E9E8E5" transform="translate(0,0)"/>
<path d="" fill="#12909D" transform="translate(0,0)"/>
<path d="" fill="#FFFEFF" transform="translate(0,0)"/>
<path d="M0 0 C3 1 3 1 3 1 Z " fill="#FDFCFF" transform="translate(95,62)"/>
<path d="" fill="#32CAC8" transform="translate(0,0)"/>
<path d="M0 0 C3 1 3 1 3 1 Z " fill="#61DFD2" transform="translate(73,53)"/>
<path d="" fill="#25B6B7" transform="translate(0,0)"/>
<path d="" fill="#198489" transform="translate(0,0)"/>
<path d="" fill="#0CCBCD" transform="translate(0,0)"/>
<path d="" fill="#1E8886" transform="translate(0,0)"/>
<path d="" fill="#18B1AF" transform="translate(0,0)"/>
<path d="M0 0 C3 1 3 1 3 1 Z " fill="#F8F8F9" transform="translate(113,42)"/>
<path d="" fill="#07CFC7" transform="translate(0,0)"/>
<path d="" fill="#20C3C5" transform="translate(0,0)"/>
<path d="" fill="#3ACDD4" transform="translate(0,0)"/>
<path d="M0 0 C3 1 3 1 3 1 Z " fill="#FCFBFB" transform="translate(113,37)"/>
<path d="" fill="#168C85" transform="translate(0,0)"/>
<path d="" fill="#25CACD" transform="translate(0,0)"/>
<path d="" fill="#0BC1CB" transform="translate(0,0)"/>
<path d="" fill="#2BD1C1" transform="translate(0,0)"/>
<path d="" fill="#228F93" transform="translate(0,0)"/>
<path d="" fill="#0B6C63" transform="translate(0,0)"/>
<path d="" fill="#12939A" transform="translate(0,0)"/>
<path d="" fill="#087D76" transform="translate(0,0)"/>
<path d="" fill="#23C6BF" transform="translate(0,0)"/>
<path d="" fill="#2DC2BE" transform="translate(0,0)"/>
<path d="" fill="#22BCAF" transform="translate(0,0)"/>
<path d="" fill="#37CDBD" transform="translate(0,0)"/>
<path d="" fill="#0ACFCA" transform="translate(0,0)"/>
<path d="" fill="#36CBBF" transform="translate(0,0)"/>
<path d="" fill="#1EAEB1" transform="translate(0,0)"/>
<path d="M0 0 C3 1 3 1 3 1 Z " fill="#37E9D6" transform="translate(17,22)"/>
<path d="" fill="#FFFEFF" transform="translate(0,0)"/>
<path d="" fill="#FEFFFF" transform="translate(0,0)"/>
<path d="" fill="#125553" transform="translate(0,0)"/>
<path d="" fill="#179892" transform="translate(0,0)"/>
<path d="" fill="#14535D" transform="translate(0,0)"/>
<path d="" fill="#2CB9A9" transform="translate(0,0)"/>
<path d="" fill="#0F998F" transform="translate(0,0)"/>
<path d="" fill="#159AA2" transform="translate(0,0)"/>
<path d="" fill="#FFFFFF" transform="translate(0,0)"/>
<path d="" fill="#0B9688" transform="translate(0,0)"/>
<path d="" fill="#059693" transform="translate(0,0)"/>
<path d="" fill="#0ACFCA" transform="translate(0,0)"/>
<path d="" fill="#FFFEFF" transform="translate(0,0)"/>
<path d="" fill="#FFFFFF" transform="translate(0,0)"/>
<path d="" fill="#029C9E" transform="translate(0,0)"/>
<path d="" fill="#12DBD6" transform="translate(0,0)"/>
<path d="" fill="#51BDB4" transform="translate(0,0)"/>
<path d="" fill="#FFFFFF" transform="translate(0,0)"/>
<path d="" fill="#FFFFFF" transform="translate(0,0)"/>
<path d="" fill="#2FC5CD" transform="translate(0,0)"/>
<path d="" fill="#20CBD1" transform="translate(0,0)"/>
<path d="" fill="#FFFFFF" transform="translate(0,0)"/>
<path d="" fill="#FFFFFF" transform="translate(0,0)"/>
<path d="" fill="#FFFFFF" transform="translate(0,0)"/>
<path d="" fill="#15C8CB" transform="translate(0,0)"/>
<path d="" fill="#17D2DB" transform="translate(0,0)"/>
<path d="" fill="#3A766E" transform="translate(0,0)"/>
<path d="" fill="#FDFCFA" transform="translate(0,0)"/>
<path d="" fill="#135567" transform="translate(0,0)"/>
<path d="" fill="#1D4D4A" transform="translate(0,0)"/>
<path d="" fill="#FFFFFF" transform="translate(0,0)"/>
<path d="" fill="#26C6B7" transform="translate(0,0)"/>
<path d="" fill="#FDFDFB" transform="translate(0,0)"/>
<path d="" fill="#FFFFFF" transform="translate(0,0)"/>
<path d="" fill="#105864" transform="translate(0,0)"/>
<path d="" fill="#FEFFFA" transform="translate(0,0)"/>
<path d="" fill="#08A597" transform="translate(0,0)"/>
<path d="" fill="#E6E4DA" transform="translate(0,0)"/>
<path d="" fill="#24CFB8" transform="translate(0,0)"/>
<path d="" fill="#36BCC2" transform="translate(0,0)"/>
<path d="" fill="#17EDEB" transform="translate(0,0)"/>
<path d="" fill="#009594" transform="translate(0,0)"/>
<path d="" fill="#1EE9E6" transform="translate(0,0)"/>
<path d="" fill="#2CB6C4" transform="translate(0,0)"/>
<path d="" fill="#0995AB" transform="translate(0,0)"/>
<path d="" fill="#0295A2" transform="translate(0,0)"/>
<path d="" fill="#34B9B8" transform="translate(0,0)"/>
<path d="" fill="#F7F7F5" transform="translate(0,0)"/>
<path d="" fill="#27C0CD" transform="translate(0,0)"/>
<path d="" fill="#236274" transform="translate(0,0)"/>
<path d="" fill="#056471" transform="translate(0,0)"/>
<path d="M0 0 C2 1 2 1 2 1 Z " fill="#F2E0DB" transform="translate(56,59)"/>
<path d="M0 0 C2 1 2 1 2 1 Z " fill="#006773" transform="translate(21,59)"/>
<path d="" fill="#00A3A0" transform="translate(0,0)"/>
<path d="M0 0 C2 1 2 1 2 1 Z " fill="#F2F9FD" transform="translate(31,56)"/>
<path d="" fill="#30EBE8" transform="translate(0,0)"/>
<path d="" fill="#028E89" transform="translate(0,0)"/>
<path d="M0 0 C2 1 2 1 2 1 Z " fill="#8EE4EC" transform="translate(89,48)"/>
<path d="" fill="#11F9F4" transform="translate(0,0)"/>
<path d="" fill="#0BD8D3" transform="translate(0,0)"/>
<path d="M0 0 C2 1 2 1 2 1 Z " fill="#7EDFD3" transform="translate(100,45)"/>
<path d="" fill="#1A9593" transform="translate(0,0)"/>
<path d="" fill="#1C93AB" transform="translate(0,0)"/>
<path d="" fill="#1FCBBA" transform="translate(0,0)"/>
<path d="" fill="#06D5D8" transform="translate(0,0)"/>
<path d="" fill="#0C8E9D" transform="translate(0,0)"/>
<path d="" fill="#2DBEBB" transform="translate(0,0)"/>
<path d="" fill="#169391" transform="translate(0,0)"/>
<path d="" fill="#14B6DA" transform="translate(0,0)"/>
<path d="" fill="#009694" transform="translate(0,0)"/>
<path d="" fill="#37BACF" transform="translate(0,0)"/>
<path d="" fill="#2DABAF" transform="translate(0,0)"/>
<path d="" fill="#088796" transform="translate(0,0)"/>
<path d="" fill="#07564B" transform="translate(0,0)"/>
<path d="" fill="#1FC8CA" transform="translate(0,0)"/>
<path d="" fill="#1B848A" transform="translate(0,0)"/>
<path d="" fill="#098F8D" transform="translate(0,0)"/>
<path d="" fill="#45B4AE" transform="translate(0,0)"/>
<path d="" fill="#195C66" transform="translate(0,0)"/>
<path d="" fill="#07A39A" transform="translate(0,0)"/>
<path d="" fill="#0BD5C4" transform="translate(0,0)"/>
<path d="" fill="#1FC8D6" transform="translate(0,0)"/>
<path d="" fill="#20C5C1" transform="translate(0,0)"/>
<path d="" fill="#38C5CD" transform="translate(0,0)"/>
<path d="" fill="#16C8B2" transform="translate(0,0)"/>
<path d="" fill="#0AD7DB" transform="translate(0,0)"/>
<path d="" fill="#00939C" transform="translate(0,0)"/>
<path d="" fill="#FFFFFF" transform="translate(0,0)"/>
<path d="" fill="#FFFFFF" transform="translate(0,0)"/>
<path d="" fill="#FFFFFF" transform="translate(0,0)"/>
<path d="" fill="#FFFFFF" transform="translate(0,0)"/>
<path d="" fill="#FFFEFF" transform="translate(0,0)"/>
<path d="" fill="#FFFEFF" transform="translate(0,0)"/>
<path d="" fill="#000400" transform="translate(0,0)"/>
<path d="" fill="#FFFFFF" transform="translate(0,0)"/>
<path d="" fill="#FFFFFF" transform="translate(0,0)"/>
<path d="" fill="#F7FDF4" transform="translate(0,0)"/>
<path d="" fill="#FFFFFF" transform="translate(0,0)"/>
<path d="" fill="#FFFFFF" transform="translate(0,0)"/>
<path d="" fill="#FFFFFF" transform="translate(0,0)"/>
<path d="" fill="#FFFFFF" transform="translate(0,0)"/>
<path d="" fill="#FFFFFF" transform="translate(0,0)"/>
<path d="" fill="#FEFEFC" transform="translate(0,0)"/>
<path d="" fill="#FFFFFF" transform="translate(0,0)"/>
<path d="" fill="#FFFFFF" transform="translate(0,0)"/>
<path d="" fill="#FEFEFE" transform="translate(0,0)"/>
<path d="" fill="#FFFFFF" transform="translate(0,0)"/>
<path d="" fill="#FEFEFE" transform="translate(0,0)"/>
<path d="" fill="#FFFFFE" transform="translate(0,0)"/>
<path d="" fill="#FFFFFF" transform="translate(0,0)"/>
<path d="" fill="#FFFFFF" transform="translate(0,0)"/>
<path d="" fill="#FFFFFF" transform="translate(0,0)"/>
<path d="" fill="#FFFFFF" transform="translate(0,0)"/>
<path d="" fill="#FFFFFF" transform="translate(0,0)"/>
<path d="" fill="#FFFFFF" transform="translate(0,0)"/>
<path d="" fill="#FFFFFF" transform="translate(0,0)"/>
<path d="" fill="#2EEDE1" transform="translate(0,0)"/>
<path d="" fill="#F2F5BB" transform="translate(0,0)"/>
<path d="" fill="#49EDEC" transform="translate(0,0)"/>
<path d="" fill="#E4FFE1" transform="translate(0,0)"/>
<path d="" fill="#FFFFFF" transform="translate(0,0)"/>
<path d="" fill="#02A29E" transform="translate(0,0)"/>
<path d="" fill="#EDF1E7" transform="translate(0,0)"/>
<path d="" fill="#FFFFFD" transform="translate(0,0)"/>
<path d="" fill="#049E8A" transform="translate(0,0)"/>
<path d="" fill="#F6F4F2" transform="translate(0,0)"/>
<path d="" fill="#0AA593" transform="translate(0,0)"/>
<path d="" fill="#FFF7FD" transform="translate(0,0)"/>
<path d="" fill="#10A6A7" transform="translate(0,0)"/>
<path d="" fill="#FFFFFF" transform="translate(0,0)"/>
<path d="" fill="#FFFFFF" transform="translate(0,0)"/>
<path d="" fill="#F8F6F5" transform="translate(0,0)"/>
<path d="" fill="#FFFEFF" transform="translate(0,0)"/>
<path d="" fill="#F8F6F5" transform="translate(0,0)"/>
<path d="" fill="#FFFEFF" transform="translate(0,0)"/>
<path d="" fill="#F8F6F5" transform="translate(0,0)"/>
<path d="" fill="#FFFEFF" transform="translate(0,0)"/>
<path d="" fill="#F8F8FA" transform="translate(0,0)"/>
<path d="" fill="#FEFCFD" transform="translate(0,0)"/>
<path d="" fill="#E9E8EF" transform="translate(0,0)"/>
<path d="" fill="#3CE7FF" transform="translate(0,0)"/>
<path d="" fill="#5DEBE8" transform="translate(0,0)"/>
<path d="" fill="#2EE0F6" transform="translate(0,0)"/>
<path d="" fill="#5FD9E4" transform="translate(0,0)"/>
<path d="" fill="#50DFD6" transform="translate(0,0)"/>
<path d="" fill="#000E07" transform="translate(0,0)"/>
<path d="" fill="#020B08" transform="translate(0,0)"/>
<path d="" fill="#40CEBC" transform="translate(0,0)"/>
<path d="" fill="#25A39D" transform="translate(0,0)"/>
<path d="" fill="#50DDE0" transform="translate(0,0)"/>
<path d="" fill="#6ED9E3" transform="translate(0,0)"/>
</svg>
